<svg width="46" height="46" viewBox="0 0 46 46" fill="none" xmlns="http://www.w3.org/2000/svg">
<g clip-path="url(#clip0_2_1865)">
<path d="M46 23C46 10.2975 35.7025 0 23 0C10.2975 0 0 10.2975 0 23C0 35.7025 10.2975 46 23 46C35.7025 46 46 35.7025 46 23Z" fill="white"/>
<path d="M27 21.5H22.5C21.9477 21.5 21.5 21.9477 21.5 22.5V27C21.5 27.5523 21.9477 28 22.5 28H27C27.5523 28 28 27.5523 28 27V22.5C28 21.9477 27.5523 21.5 27 21.5Z" stroke="black" stroke-linecap="round" stroke-linejoin="round"/>
<path d="M19.5 24.5H19C18.7348 24.5 18.4804 24.3946 18.2929 24.2071C18.1054 24.0196 18 23.7652 18 23.5V19C18 18.7348 18.1054 18.4804 18.2929 18.2929C18.4804 18.1054 18.7348 18 19 18H23.5C23.7652 18 24.0196 18.1054 24.2071 18.2929C24.3946 18.4804 24.5 18.7348 24.5 19V19.5" stroke="black" stroke-linecap="round" stroke-linejoin="round"/>
</g>
<defs>
<clipPath id="clip0_2_1865">
<rect width="46" height="46" fill="white"/>
</clipPath>
</defs>
</svg>
