<svg width="46" height="46" viewBox="0 0 46 46" fill="none" xmlns="http://www.w3.org/2000/svg">
<g clip-path="url(#clip0_2_3509)">
<path d="M46 23C46 10.2975 35.7025 0 23 0C10.2975 0 0 10.2975 0 23C0 35.7025 10.2975 46 23 46C35.7025 46 46 35.7025 46 23Z" fill="#FF1014"/>
<path d="M18 19.2224H19.1111H28" stroke="white" stroke-linecap="round" stroke-linejoin="round"/>
<path d="M26.8889 19.2222V27C26.8889 27.2947 26.7718 27.5773 26.5634 27.7857C26.3551 27.994 26.0724 28.1111 25.7778 28.1111H20.2222C19.9275 28.1111 19.6449 27.994 19.4365 27.7857C19.2281 27.5773 19.1111 27.2947 19.1111 27V19.2222M20.7778 19.2222V18.1111C20.7778 17.8164 20.8948 17.5338 21.1032 17.3254C21.3116 17.1171 21.5942 17 21.8889 17H24.1111C24.4058 17 24.6884 17.1171 24.8968 17.3254C25.1051 17.5338 25.2222 17.8164 25.2222 18.1111V19.2222" stroke="white" stroke-linecap="round" stroke-linejoin="round"/>
</g>
<defs>
<clipPath id="clip0_2_3509">
<rect width="46" height="46" fill="white"/>
</clipPath>
</defs>
</svg>
